<mxfile host="app.diagrams.net" modified="2022-10-06T22:24:40.958Z" agent="5.0 (Windows NT 10.0; Win64; x64) AppleWebKit/537.36 (KHTML, like Gecko) Chrome/105.0.0.0 Safari/537.36" etag="7t6GsFrsMB8TmTcVON85" version="20.3.6" type="github">
  <diagram id="5sx0JKpwkeIpEaDB6d_M" name="Página-1">
    <mxGraphModel dx="782" dy="738" grid="1" gridSize="10" guides="1" tooltips="1" connect="1" arrows="1" fold="1" page="1" pageScale="1" pageWidth="1100" pageHeight="850" math="0" shadow="0">
      <root>
        <mxCell id="0" />
        <mxCell id="1" parent="0" />
        <mxCell id="AOJwUy35XkBBClN1Ieuf-7" value="" style="rounded=0;whiteSpace=wrap;html=1;dashed=1;" vertex="1" parent="1">
          <mxGeometry x="120" y="230" width="160" height="290" as="geometry" />
        </mxCell>
        <mxCell id="AOJwUy35XkBBClN1Ieuf-3" value="" style="aspect=fixed;html=1;points=[];align=center;image;fontSize=12;image=img/lib/azure2/networking/Web_Application_Firewall_Policies_WAF.svg;" vertex="1" parent="1">
          <mxGeometry x="170" y="330" width="50" height="50" as="geometry" />
        </mxCell>
        <mxCell id="AOJwUy35XkBBClN1Ieuf-5" style="edgeStyle=orthogonalEdgeStyle;rounded=0;orthogonalLoop=1;jettySize=auto;html=1;" edge="1" parent="1" source="AOJwUy35XkBBClN1Ieuf-4" target="AOJwUy35XkBBClN1Ieuf-3">
          <mxGeometry relative="1" as="geometry" />
        </mxCell>
        <mxCell id="AOJwUy35XkBBClN1Ieuf-4" value="Usuario" style="shape=umlActor;verticalLabelPosition=bottom;verticalAlign=top;html=1;outlineConnect=0;" vertex="1" parent="1">
          <mxGeometry x="50" y="325" width="30" height="60" as="geometry" />
        </mxCell>
        <mxCell id="AOJwUy35XkBBClN1Ieuf-6" value="Web Application Filter" style="text;html=1;align=center;verticalAlign=middle;resizable=0;points=[];autosize=1;strokeColor=none;fillColor=none;" vertex="1" parent="1">
          <mxGeometry x="130" y="395" width="140" height="30" as="geometry" />
        </mxCell>
        <mxCell id="AOJwUy35XkBBClN1Ieuf-9" value="" style="rounded=0;whiteSpace=wrap;html=1;dashed=1;" vertex="1" parent="1">
          <mxGeometry x="300" y="230" width="360" height="290" as="geometry" />
        </mxCell>
        <mxCell id="AOJwUy35XkBBClN1Ieuf-10" value="Cloud" style="text;html=1;align=center;verticalAlign=middle;resizable=0;points=[];autosize=1;strokeColor=none;fillColor=none;" vertex="1" parent="1">
          <mxGeometry x="460" y="200" width="50" height="30" as="geometry" />
        </mxCell>
        <mxCell id="AOJwUy35XkBBClN1Ieuf-11" value="" style="rounded=1;whiteSpace=wrap;html=1;dashed=1;" vertex="1" parent="1">
          <mxGeometry x="320" y="270" width="310" height="230" as="geometry" />
        </mxCell>
        <mxCell id="AOJwUy35XkBBClN1Ieuf-12" value="" style="rounded=0;whiteSpace=wrap;html=1;dashed=1;" vertex="1" parent="1">
          <mxGeometry x="690" y="230" width="360" height="290" as="geometry" />
        </mxCell>
        <mxCell id="AOJwUy35XkBBClN1Ieuf-13" value="Cloud PaaS" style="text;html=1;align=center;verticalAlign=middle;resizable=0;points=[];autosize=1;strokeColor=none;fillColor=none;" vertex="1" parent="1">
          <mxGeometry x="145" y="200" width="90" height="30" as="geometry" />
        </mxCell>
        <mxCell id="AOJwUy35XkBBClN1Ieuf-14" value="Data Center" style="text;html=1;align=center;verticalAlign=middle;resizable=0;points=[];autosize=1;strokeColor=none;fillColor=none;" vertex="1" parent="1">
          <mxGeometry x="830" y="200" width="90" height="30" as="geometry" />
        </mxCell>
        <mxCell id="AOJwUy35XkBBClN1Ieuf-15" value="" style="html=1;verticalLabelPosition=bottom;align=center;labelBackgroundColor=#ffffff;verticalAlign=top;strokeWidth=2;strokeColor=#0080F0;shadow=0;dashed=0;shape=mxgraph.ios7.icons.data;" vertex="1" parent="1">
          <mxGeometry x="830" y="430.9" width="50" height="49.1" as="geometry" />
        </mxCell>
        <mxCell id="AOJwUy35XkBBClN1Ieuf-16" value="BD Corporativa" style="text;html=1;align=center;verticalAlign=middle;resizable=0;points=[];autosize=1;strokeColor=none;fillColor=none;" vertex="1" parent="1">
          <mxGeometry x="805" y="480" width="110" height="30" as="geometry" />
        </mxCell>
        <mxCell id="AOJwUy35XkBBClN1Ieuf-19" value="" style="rounded=1;whiteSpace=wrap;html=1;dashed=1;" vertex="1" parent="1">
          <mxGeometry x="920" y="280" width="80" height="60" as="geometry" />
        </mxCell>
        <mxCell id="AOJwUy35XkBBClN1Ieuf-18" value="" style="aspect=fixed;html=1;points=[];align=center;image;fontSize=12;image=img/lib/azure2/azure_stack/User_Subscriptions.svg;dashed=1;" vertex="1" parent="1">
          <mxGeometry x="941" y="291.56" width="38" height="36.88" as="geometry" />
        </mxCell>
        <mxCell id="AOJwUy35XkBBClN1Ieuf-20" value="Identity Provider" style="text;html=1;align=center;verticalAlign=middle;resizable=0;points=[];autosize=1;strokeColor=none;fillColor=none;" vertex="1" parent="1">
          <mxGeometry x="905" y="250" width="110" height="30" as="geometry" />
        </mxCell>
        <mxCell id="AOJwUy35XkBBClN1Ieuf-21" value="" style="rounded=1;whiteSpace=wrap;html=1;dashed=1;" vertex="1" parent="1">
          <mxGeometry x="720" y="275" width="80" height="70" as="geometry" />
        </mxCell>
        <mxCell id="AOJwUy35XkBBClN1Ieuf-22" value="Api Manager" style="text;html=1;align=center;verticalAlign=middle;resizable=0;points=[];autosize=1;strokeColor=none;fillColor=none;" vertex="1" parent="1">
          <mxGeometry x="715" y="250" width="90" height="30" as="geometry" />
        </mxCell>
        <mxCell id="AOJwUy35XkBBClN1Ieuf-46" style="edgeStyle=orthogonalEdgeStyle;rounded=0;orthogonalLoop=1;jettySize=auto;html=1;" edge="1" parent="1" source="AOJwUy35XkBBClN1Ieuf-24" target="AOJwUy35XkBBClN1Ieuf-15">
          <mxGeometry relative="1" as="geometry">
            <Array as="points">
              <mxPoint x="760" y="456" />
            </Array>
          </mxGeometry>
        </mxCell>
        <mxCell id="AOJwUy35XkBBClN1Ieuf-48" style="edgeStyle=orthogonalEdgeStyle;rounded=0;orthogonalLoop=1;jettySize=auto;html=1;entryX=1;entryY=0.412;entryDx=0;entryDy=0;entryPerimeter=0;" edge="1" parent="1" source="AOJwUy35XkBBClN1Ieuf-24" target="AOJwUy35XkBBClN1Ieuf-30">
          <mxGeometry relative="1" as="geometry" />
        </mxCell>
        <mxCell id="AOJwUy35XkBBClN1Ieuf-24" value="" style="shape=image;verticalLabelPosition=bottom;labelBackgroundColor=default;verticalAlign=top;aspect=fixed;imageAspect=0;image=https://blogs.sap.com/wp-content/uploads/2018/08/API.png;" vertex="1" parent="1">
          <mxGeometry x="730" y="280" width="60" height="60" as="geometry" />
        </mxCell>
        <mxCell id="AOJwUy35XkBBClN1Ieuf-25" value="Clúster Kubernetes" style="text;html=1;align=center;verticalAlign=middle;resizable=0;points=[];autosize=1;strokeColor=none;fillColor=none;" vertex="1" parent="1">
          <mxGeometry x="320" y="245" width="130" height="30" as="geometry" />
        </mxCell>
        <mxCell id="AOJwUy35XkBBClN1Ieuf-27" value="" style="rounded=1;whiteSpace=wrap;html=1;dashed=1;" vertex="1" parent="1">
          <mxGeometry x="815" y="275" width="90" height="65" as="geometry" />
        </mxCell>
        <mxCell id="AOJwUy35XkBBClN1Ieuf-28" value="Middleware" style="text;html=1;align=center;verticalAlign=middle;resizable=0;points=[];autosize=1;strokeColor=none;fillColor=none;" vertex="1" parent="1">
          <mxGeometry x="810" y="250" width="80" height="30" as="geometry" />
        </mxCell>
        <mxCell id="AOJwUy35XkBBClN1Ieuf-47" style="edgeStyle=orthogonalEdgeStyle;rounded=0;orthogonalLoop=1;jettySize=auto;html=1;entryX=0.6;entryY=0.267;entryDx=0;entryDy=0;entryPerimeter=0;" edge="1" parent="1" source="AOJwUy35XkBBClN1Ieuf-29" target="AOJwUy35XkBBClN1Ieuf-15">
          <mxGeometry relative="1" as="geometry" />
        </mxCell>
        <mxCell id="AOJwUy35XkBBClN1Ieuf-29" value="" style="aspect=fixed;perimeter=ellipsePerimeter;html=1;align=center;shadow=0;dashed=0;spacingTop=3;image;image=img/lib/active_directory/web_server.svg;" vertex="1" parent="1">
          <mxGeometry x="840" y="280" width="40" height="50" as="geometry" />
        </mxCell>
        <mxCell id="AOJwUy35XkBBClN1Ieuf-52" style="edgeStyle=orthogonalEdgeStyle;rounded=0;orthogonalLoop=1;jettySize=auto;html=1;entryX=0.588;entryY=1;entryDx=0;entryDy=0;entryPerimeter=0;" edge="1" parent="1" source="AOJwUy35XkBBClN1Ieuf-30" target="AOJwUy35XkBBClN1Ieuf-19">
          <mxGeometry relative="1" as="geometry">
            <Array as="points">
              <mxPoint x="475" y="510" />
              <mxPoint x="967" y="510" />
            </Array>
          </mxGeometry>
        </mxCell>
        <mxCell id="AOJwUy35XkBBClN1Ieuf-30" value="" style="rounded=1;whiteSpace=wrap;html=1;" vertex="1" parent="1">
          <mxGeometry x="340" y="300" width="270" height="170" as="geometry" />
        </mxCell>
        <mxCell id="AOJwUy35XkBBClN1Ieuf-31" value="Project" style="text;html=1;align=center;verticalAlign=middle;resizable=0;points=[];autosize=1;strokeColor=none;fillColor=none;" vertex="1" parent="1">
          <mxGeometry x="345" y="275" width="60" height="30" as="geometry" />
        </mxCell>
        <mxCell id="AOJwUy35XkBBClN1Ieuf-32" value="" style="aspect=fixed;perimeter=ellipsePerimeter;html=1;align=center;fontSize=12;verticalAlign=top;fontColor=#364149;shadow=0;dashed=0;image;image=img/lib/cumulus/container.svg;" vertex="1" parent="1">
          <mxGeometry x="360" y="314.45" width="35" height="31.12" as="geometry" />
        </mxCell>
        <mxCell id="AOJwUy35XkBBClN1Ieuf-33" value="" style="aspect=fixed;perimeter=ellipsePerimeter;html=1;align=center;fontSize=12;verticalAlign=top;fontColor=#364149;shadow=0;dashed=0;image;image=img/lib/cumulus/container.svg;" vertex="1" parent="1">
          <mxGeometry x="360" y="359.44" width="35" height="31.12" as="geometry" />
        </mxCell>
        <mxCell id="AOJwUy35XkBBClN1Ieuf-34" value="" style="aspect=fixed;perimeter=ellipsePerimeter;html=1;align=center;fontSize=12;verticalAlign=top;fontColor=#364149;shadow=0;dashed=0;image;image=img/lib/cumulus/container.svg;" vertex="1" parent="1">
          <mxGeometry x="425" y="314.45" width="35" height="31.12" as="geometry" />
        </mxCell>
        <mxCell id="AOJwUy35XkBBClN1Ieuf-35" value="" style="aspect=fixed;perimeter=ellipsePerimeter;html=1;align=center;fontSize=12;verticalAlign=top;fontColor=#364149;shadow=0;dashed=0;image;image=img/lib/cumulus/container.svg;" vertex="1" parent="1">
          <mxGeometry x="425" y="359.44" width="35" height="31.12" as="geometry" />
        </mxCell>
        <mxCell id="AOJwUy35XkBBClN1Ieuf-36" value="" style="aspect=fixed;perimeter=ellipsePerimeter;html=1;align=center;fontSize=12;verticalAlign=top;fontColor=#364149;shadow=0;dashed=0;image;image=img/lib/cumulus/container.svg;" vertex="1" parent="1">
          <mxGeometry x="360" y="409" width="35" height="31.12" as="geometry" />
        </mxCell>
        <mxCell id="AOJwUy35XkBBClN1Ieuf-37" value="" style="aspect=fixed;perimeter=ellipsePerimeter;html=1;align=center;fontSize=12;verticalAlign=top;fontColor=#364149;shadow=0;dashed=0;image;image=img/lib/cumulus/container.svg;" vertex="1" parent="1">
          <mxGeometry x="430" y="409" width="35" height="31.12" as="geometry" />
        </mxCell>
        <mxCell id="AOJwUy35XkBBClN1Ieuf-38" value="" style="aspect=fixed;perimeter=ellipsePerimeter;html=1;align=center;fontSize=12;verticalAlign=top;fontColor=#364149;shadow=0;dashed=0;image;image=img/lib/cumulus/container.svg;" vertex="1" parent="1">
          <mxGeometry x="500" y="314.45" width="35" height="31.12" as="geometry" />
        </mxCell>
        <mxCell id="AOJwUy35XkBBClN1Ieuf-39" value="" style="aspect=fixed;perimeter=ellipsePerimeter;html=1;align=center;fontSize=12;verticalAlign=top;fontColor=#364149;shadow=0;dashed=0;image;image=img/lib/cumulus/container.svg;" vertex="1" parent="1">
          <mxGeometry x="500" y="364.44" width="35" height="31.12" as="geometry" />
        </mxCell>
        <mxCell id="AOJwUy35XkBBClN1Ieuf-40" value="" style="aspect=fixed;perimeter=ellipsePerimeter;html=1;align=center;fontSize=12;verticalAlign=top;fontColor=#364149;shadow=0;dashed=0;image;image=img/lib/cumulus/container.svg;" vertex="1" parent="1">
          <mxGeometry x="500" y="409" width="35" height="31.12" as="geometry" />
        </mxCell>
        <mxCell id="AOJwUy35XkBBClN1Ieuf-41" value="" style="aspect=fixed;perimeter=ellipsePerimeter;html=1;align=center;fontSize=12;verticalAlign=top;fontColor=#364149;shadow=0;dashed=0;image;image=img/lib/cumulus/container.svg;" vertex="1" parent="1">
          <mxGeometry x="550" y="314.45" width="35" height="31.12" as="geometry" />
        </mxCell>
        <mxCell id="AOJwUy35XkBBClN1Ieuf-42" value="" style="aspect=fixed;perimeter=ellipsePerimeter;html=1;align=center;fontSize=12;verticalAlign=top;fontColor=#364149;shadow=0;dashed=0;image;image=img/lib/cumulus/container.svg;" vertex="1" parent="1">
          <mxGeometry x="550" y="364.44" width="35" height="31.12" as="geometry" />
        </mxCell>
        <mxCell id="AOJwUy35XkBBClN1Ieuf-43" value="" style="aspect=fixed;perimeter=ellipsePerimeter;html=1;align=center;fontSize=12;verticalAlign=top;fontColor=#364149;shadow=0;dashed=0;image;image=img/lib/cumulus/container.svg;" vertex="1" parent="1">
          <mxGeometry x="550" y="409" width="35" height="31.12" as="geometry" />
        </mxCell>
        <mxCell id="AOJwUy35XkBBClN1Ieuf-44" value="Frontend container" style="text;html=1;align=center;verticalAlign=middle;resizable=0;points=[];autosize=1;strokeColor=none;fillColor=none;" vertex="1" parent="1">
          <mxGeometry x="355" y="440.12" width="120" height="30" as="geometry" />
        </mxCell>
        <mxCell id="AOJwUy35XkBBClN1Ieuf-45" value="Backend container" style="text;html=1;align=center;verticalAlign=middle;resizable=0;points=[];autosize=1;strokeColor=none;fillColor=none;" vertex="1" parent="1">
          <mxGeometry x="480" y="440.45" width="120" height="30" as="geometry" />
        </mxCell>
        <mxCell id="AOJwUy35XkBBClN1Ieuf-50" style="edgeStyle=orthogonalEdgeStyle;rounded=0;orthogonalLoop=1;jettySize=auto;html=1;exitX=0;exitY=0.5;exitDx=0;exitDy=0;" edge="1" parent="1" source="AOJwUy35XkBBClN1Ieuf-30" target="AOJwUy35XkBBClN1Ieuf-3">
          <mxGeometry relative="1" as="geometry">
            <Array as="points">
              <mxPoint x="290" y="385" />
              <mxPoint x="290" y="355" />
            </Array>
          </mxGeometry>
        </mxCell>
        <mxCell id="AOJwUy35XkBBClN1Ieuf-53" value="" style="rounded=0;whiteSpace=wrap;html=1;dashed=1;" vertex="1" parent="1">
          <mxGeometry x="50" y="1100" width="200" height="290" as="geometry" />
        </mxCell>
        <mxCell id="AOJwUy35XkBBClN1Ieuf-54" value="" style="aspect=fixed;html=1;points=[];align=center;image;fontSize=12;image=img/lib/azure2/networking/Web_Application_Firewall_Policies_WAF.svg;" vertex="1" parent="1">
          <mxGeometry x="130" y="1200" width="50" height="50" as="geometry" />
        </mxCell>
        <mxCell id="AOJwUy35XkBBClN1Ieuf-55" style="edgeStyle=orthogonalEdgeStyle;rounded=0;orthogonalLoop=1;jettySize=auto;html=1;" edge="1" parent="1" source="AOJwUy35XkBBClN1Ieuf-56" target="AOJwUy35XkBBClN1Ieuf-54">
          <mxGeometry relative="1" as="geometry" />
        </mxCell>
        <mxCell id="AOJwUy35XkBBClN1Ieuf-56" value="Usuario" style="shape=umlActor;verticalLabelPosition=bottom;verticalAlign=top;html=1;outlineConnect=0;" vertex="1" parent="1">
          <mxGeometry x="10" y="1195" width="30" height="60" as="geometry" />
        </mxCell>
        <mxCell id="AOJwUy35XkBBClN1Ieuf-57" value="Web Application Filter" style="text;html=1;align=center;verticalAlign=middle;resizable=0;points=[];autosize=1;strokeColor=none;fillColor=none;" vertex="1" parent="1">
          <mxGeometry x="90" y="1265" width="140" height="30" as="geometry" />
        </mxCell>
        <mxCell id="AOJwUy35XkBBClN1Ieuf-58" value="" style="rounded=0;whiteSpace=wrap;html=1;dashed=1;" vertex="1" parent="1">
          <mxGeometry x="260" y="1100" width="360" height="290" as="geometry" />
        </mxCell>
        <mxCell id="AOJwUy35XkBBClN1Ieuf-59" value="Azure" style="text;html=1;align=center;verticalAlign=middle;resizable=0;points=[];autosize=1;strokeColor=none;fillColor=none;" vertex="1" parent="1">
          <mxGeometry x="420" y="1070" width="50" height="30" as="geometry" />
        </mxCell>
        <mxCell id="AOJwUy35XkBBClN1Ieuf-60" value="" style="rounded=1;whiteSpace=wrap;html=1;dashed=1;" vertex="1" parent="1">
          <mxGeometry x="280" y="1140" width="310" height="230" as="geometry" />
        </mxCell>
        <mxCell id="AOJwUy35XkBBClN1Ieuf-61" value="" style="rounded=0;whiteSpace=wrap;html=1;dashed=1;" vertex="1" parent="1">
          <mxGeometry x="650" y="1100" width="360" height="290" as="geometry" />
        </mxCell>
        <mxCell id="AOJwUy35XkBBClN1Ieuf-62" value="Cloud PaaS" style="text;html=1;align=center;verticalAlign=middle;resizable=0;points=[];autosize=1;strokeColor=none;fillColor=none;" vertex="1" parent="1">
          <mxGeometry x="105" y="1070" width="90" height="30" as="geometry" />
        </mxCell>
        <mxCell id="AOJwUy35XkBBClN1Ieuf-63" value="Data Center" style="text;html=1;align=center;verticalAlign=middle;resizable=0;points=[];autosize=1;strokeColor=none;fillColor=none;" vertex="1" parent="1">
          <mxGeometry x="760" y="1070" width="90" height="30" as="geometry" />
        </mxCell>
        <mxCell id="AOJwUy35XkBBClN1Ieuf-64" value="" style="html=1;verticalLabelPosition=bottom;align=center;labelBackgroundColor=#ffffff;verticalAlign=top;strokeWidth=2;strokeColor=#0080F0;shadow=0;dashed=0;shape=mxgraph.ios7.icons.data;" vertex="1" parent="1">
          <mxGeometry x="790" y="1300.9" width="50" height="49.1" as="geometry" />
        </mxCell>
        <mxCell id="AOJwUy35XkBBClN1Ieuf-65" value="BD Corporativa" style="text;html=1;align=center;verticalAlign=middle;resizable=0;points=[];autosize=1;strokeColor=none;fillColor=none;" vertex="1" parent="1">
          <mxGeometry x="765" y="1350" width="110" height="30" as="geometry" />
        </mxCell>
        <mxCell id="AOJwUy35XkBBClN1Ieuf-66" value="" style="rounded=1;whiteSpace=wrap;html=1;dashed=1;" vertex="1" parent="1">
          <mxGeometry x="899" y="1155" width="80" height="60" as="geometry" />
        </mxCell>
        <mxCell id="AOJwUy35XkBBClN1Ieuf-67" value="" style="aspect=fixed;html=1;points=[];align=center;image;fontSize=12;image=img/lib/azure2/azure_stack/User_Subscriptions.svg;dashed=1;" vertex="1" parent="1">
          <mxGeometry x="920" y="1163.12" width="38" height="36.88" as="geometry" />
        </mxCell>
        <mxCell id="AOJwUy35XkBBClN1Ieuf-68" value="Wso2 Identity Server" style="text;html=1;align=center;verticalAlign=middle;resizable=0;points=[];autosize=1;strokeColor=none;fillColor=none;" vertex="1" parent="1">
          <mxGeometry x="870" y="1120" width="130" height="30" as="geometry" />
        </mxCell>
        <mxCell id="AOJwUy35XkBBClN1Ieuf-69" value="" style="rounded=1;whiteSpace=wrap;html=1;dashed=1;" vertex="1" parent="1">
          <mxGeometry x="680" y="1145" width="80" height="70" as="geometry" />
        </mxCell>
        <mxCell id="AOJwUy35XkBBClN1Ieuf-70" value="Anypoint Mulesoft" style="text;html=1;align=center;verticalAlign=middle;resizable=0;points=[];autosize=1;strokeColor=none;fillColor=none;" vertex="1" parent="1">
          <mxGeometry x="660" y="1120" width="120" height="30" as="geometry" />
        </mxCell>
        <mxCell id="AOJwUy35XkBBClN1Ieuf-71" style="edgeStyle=orthogonalEdgeStyle;rounded=0;orthogonalLoop=1;jettySize=auto;html=1;" edge="1" parent="1" source="AOJwUy35XkBBClN1Ieuf-73" target="AOJwUy35XkBBClN1Ieuf-64">
          <mxGeometry relative="1" as="geometry">
            <Array as="points">
              <mxPoint x="720" y="1326" />
            </Array>
          </mxGeometry>
        </mxCell>
        <mxCell id="AOJwUy35XkBBClN1Ieuf-72" style="edgeStyle=orthogonalEdgeStyle;rounded=0;orthogonalLoop=1;jettySize=auto;html=1;entryX=1;entryY=0.412;entryDx=0;entryDy=0;entryPerimeter=0;" edge="1" parent="1" source="AOJwUy35XkBBClN1Ieuf-73" target="AOJwUy35XkBBClN1Ieuf-80">
          <mxGeometry relative="1" as="geometry" />
        </mxCell>
        <mxCell id="AOJwUy35XkBBClN1Ieuf-73" value="" style="shape=image;verticalLabelPosition=bottom;labelBackgroundColor=default;verticalAlign=top;aspect=fixed;imageAspect=0;image=https://blogs.sap.com/wp-content/uploads/2018/08/API.png;" vertex="1" parent="1">
          <mxGeometry x="690" y="1150" width="60" height="60" as="geometry" />
        </mxCell>
        <mxCell id="AOJwUy35XkBBClN1Ieuf-74" value="Openshift" style="text;html=1;align=center;verticalAlign=middle;resizable=0;points=[];autosize=1;strokeColor=none;fillColor=none;" vertex="1" parent="1">
          <mxGeometry x="280" y="1115" width="70" height="30" as="geometry" />
        </mxCell>
        <mxCell id="AOJwUy35XkBBClN1Ieuf-75" value="" style="rounded=1;whiteSpace=wrap;html=1;dashed=1;" vertex="1" parent="1">
          <mxGeometry x="775" y="1145" width="90" height="65" as="geometry" />
        </mxCell>
        <mxCell id="AOJwUy35XkBBClN1Ieuf-76" value="Exalogic /" style="text;html=1;align=center;verticalAlign=middle;resizable=0;points=[];autosize=1;strokeColor=none;fillColor=none;" vertex="1" parent="1">
          <mxGeometry x="780" y="1100" width="80" height="30" as="geometry" />
        </mxCell>
        <mxCell id="AOJwUy35XkBBClN1Ieuf-77" style="edgeStyle=orthogonalEdgeStyle;rounded=0;orthogonalLoop=1;jettySize=auto;html=1;entryX=0.6;entryY=0.267;entryDx=0;entryDy=0;entryPerimeter=0;" edge="1" parent="1" source="AOJwUy35XkBBClN1Ieuf-78" target="AOJwUy35XkBBClN1Ieuf-64">
          <mxGeometry relative="1" as="geometry" />
        </mxCell>
        <mxCell id="AOJwUy35XkBBClN1Ieuf-78" value="" style="aspect=fixed;perimeter=ellipsePerimeter;html=1;align=center;shadow=0;dashed=0;spacingTop=3;image;image=img/lib/active_directory/web_server.svg;" vertex="1" parent="1">
          <mxGeometry x="800" y="1150" width="40" height="50" as="geometry" />
        </mxCell>
        <mxCell id="AOJwUy35XkBBClN1Ieuf-99" style="edgeStyle=orthogonalEdgeStyle;rounded=0;orthogonalLoop=1;jettySize=auto;html=1;entryX=0.5;entryY=1;entryDx=0;entryDy=0;" edge="1" parent="1" source="AOJwUy35XkBBClN1Ieuf-80" target="AOJwUy35XkBBClN1Ieuf-66">
          <mxGeometry relative="1" as="geometry">
            <Array as="points">
              <mxPoint x="435" y="1380" />
              <mxPoint x="939" y="1380" />
            </Array>
          </mxGeometry>
        </mxCell>
        <mxCell id="AOJwUy35XkBBClN1Ieuf-80" value="" style="rounded=1;whiteSpace=wrap;html=1;" vertex="1" parent="1">
          <mxGeometry x="300" y="1170" width="270" height="170" as="geometry" />
        </mxCell>
        <mxCell id="AOJwUy35XkBBClN1Ieuf-81" value="BancaDigital" style="text;html=1;align=center;verticalAlign=middle;resizable=0;points=[];autosize=1;strokeColor=none;fillColor=none;" vertex="1" parent="1">
          <mxGeometry x="290" y="1145" width="90" height="30" as="geometry" />
        </mxCell>
        <mxCell id="AOJwUy35XkBBClN1Ieuf-82" value="" style="aspect=fixed;perimeter=ellipsePerimeter;html=1;align=center;fontSize=12;verticalAlign=top;fontColor=#364149;shadow=0;dashed=0;image;image=img/lib/cumulus/container.svg;" vertex="1" parent="1">
          <mxGeometry x="320" y="1184.45" width="35" height="31.12" as="geometry" />
        </mxCell>
        <mxCell id="AOJwUy35XkBBClN1Ieuf-83" value="" style="aspect=fixed;perimeter=ellipsePerimeter;html=1;align=center;fontSize=12;verticalAlign=top;fontColor=#364149;shadow=0;dashed=0;image;image=img/lib/cumulus/container.svg;" vertex="1" parent="1">
          <mxGeometry x="320" y="1229.44" width="35" height="31.12" as="geometry" />
        </mxCell>
        <mxCell id="AOJwUy35XkBBClN1Ieuf-84" value="" style="aspect=fixed;perimeter=ellipsePerimeter;html=1;align=center;fontSize=12;verticalAlign=top;fontColor=#364149;shadow=0;dashed=0;image;image=img/lib/cumulus/container.svg;" vertex="1" parent="1">
          <mxGeometry x="385" y="1184.45" width="35" height="31.12" as="geometry" />
        </mxCell>
        <mxCell id="AOJwUy35XkBBClN1Ieuf-85" value="" style="aspect=fixed;perimeter=ellipsePerimeter;html=1;align=center;fontSize=12;verticalAlign=top;fontColor=#364149;shadow=0;dashed=0;image;image=img/lib/cumulus/container.svg;" vertex="1" parent="1">
          <mxGeometry x="385" y="1229.44" width="35" height="31.12" as="geometry" />
        </mxCell>
        <mxCell id="AOJwUy35XkBBClN1Ieuf-86" value="" style="aspect=fixed;perimeter=ellipsePerimeter;html=1;align=center;fontSize=12;verticalAlign=top;fontColor=#364149;shadow=0;dashed=0;image;image=img/lib/cumulus/container.svg;" vertex="1" parent="1">
          <mxGeometry x="320" y="1279" width="35" height="31.12" as="geometry" />
        </mxCell>
        <mxCell id="AOJwUy35XkBBClN1Ieuf-87" value="" style="aspect=fixed;perimeter=ellipsePerimeter;html=1;align=center;fontSize=12;verticalAlign=top;fontColor=#364149;shadow=0;dashed=0;image;image=img/lib/cumulus/container.svg;" vertex="1" parent="1">
          <mxGeometry x="390" y="1279" width="35" height="31.12" as="geometry" />
        </mxCell>
        <mxCell id="AOJwUy35XkBBClN1Ieuf-88" value="" style="aspect=fixed;perimeter=ellipsePerimeter;html=1;align=center;fontSize=12;verticalAlign=top;fontColor=#364149;shadow=0;dashed=0;image;image=img/lib/cumulus/container.svg;" vertex="1" parent="1">
          <mxGeometry x="460" y="1184.45" width="35" height="31.12" as="geometry" />
        </mxCell>
        <mxCell id="AOJwUy35XkBBClN1Ieuf-89" value="" style="aspect=fixed;perimeter=ellipsePerimeter;html=1;align=center;fontSize=12;verticalAlign=top;fontColor=#364149;shadow=0;dashed=0;image;image=img/lib/cumulus/container.svg;" vertex="1" parent="1">
          <mxGeometry x="460" y="1234.44" width="35" height="31.12" as="geometry" />
        </mxCell>
        <mxCell id="AOJwUy35XkBBClN1Ieuf-90" value="" style="aspect=fixed;perimeter=ellipsePerimeter;html=1;align=center;fontSize=12;verticalAlign=top;fontColor=#364149;shadow=0;dashed=0;image;image=img/lib/cumulus/container.svg;" vertex="1" parent="1">
          <mxGeometry x="460" y="1279" width="35" height="31.12" as="geometry" />
        </mxCell>
        <mxCell id="AOJwUy35XkBBClN1Ieuf-91" value="" style="aspect=fixed;perimeter=ellipsePerimeter;html=1;align=center;fontSize=12;verticalAlign=top;fontColor=#364149;shadow=0;dashed=0;image;image=img/lib/cumulus/container.svg;" vertex="1" parent="1">
          <mxGeometry x="510" y="1184.45" width="35" height="31.12" as="geometry" />
        </mxCell>
        <mxCell id="AOJwUy35XkBBClN1Ieuf-92" value="" style="aspect=fixed;perimeter=ellipsePerimeter;html=1;align=center;fontSize=12;verticalAlign=top;fontColor=#364149;shadow=0;dashed=0;image;image=img/lib/cumulus/container.svg;" vertex="1" parent="1">
          <mxGeometry x="510" y="1234.44" width="35" height="31.12" as="geometry" />
        </mxCell>
        <mxCell id="AOJwUy35XkBBClN1Ieuf-93" value="" style="aspect=fixed;perimeter=ellipsePerimeter;html=1;align=center;fontSize=12;verticalAlign=top;fontColor=#364149;shadow=0;dashed=0;image;image=img/lib/cumulus/container.svg;" vertex="1" parent="1">
          <mxGeometry x="510" y="1279" width="35" height="31.12" as="geometry" />
        </mxCell>
        <mxCell id="AOJwUy35XkBBClN1Ieuf-94" value="Frontend container" style="text;html=1;align=center;verticalAlign=middle;resizable=0;points=[];autosize=1;strokeColor=none;fillColor=none;" vertex="1" parent="1">
          <mxGeometry x="315" y="1310.12" width="120" height="30" as="geometry" />
        </mxCell>
        <mxCell id="AOJwUy35XkBBClN1Ieuf-95" value="Backend container" style="text;html=1;align=center;verticalAlign=middle;resizable=0;points=[];autosize=1;strokeColor=none;fillColor=none;" vertex="1" parent="1">
          <mxGeometry x="440" y="1310.45" width="120" height="30" as="geometry" />
        </mxCell>
        <mxCell id="AOJwUy35XkBBClN1Ieuf-96" style="edgeStyle=orthogonalEdgeStyle;rounded=0;orthogonalLoop=1;jettySize=auto;html=1;exitX=0;exitY=0.5;exitDx=0;exitDy=0;" edge="1" parent="1" source="AOJwUy35XkBBClN1Ieuf-80" target="AOJwUy35XkBBClN1Ieuf-54">
          <mxGeometry relative="1" as="geometry">
            <Array as="points">
              <mxPoint x="250" y="1255" />
              <mxPoint x="250" y="1225" />
            </Array>
          </mxGeometry>
        </mxCell>
        <mxCell id="AOJwUy35XkBBClN1Ieuf-97" value="https://bancadigital.monex.com.mx/" style="text;html=1;align=center;verticalAlign=middle;resizable=0;points=[];autosize=1;strokeColor=none;fillColor=none;" vertex="1" parent="1">
          <mxGeometry x="50" y="1170" width="210" height="30" as="geometry" />
        </mxCell>
        <mxCell id="AOJwUy35XkBBClN1Ieuf-98" value="" style="sketch=0;aspect=fixed;html=1;points=[];align=center;image;fontSize=12;image=img/lib/mscae/OpenShift.svg;rounded=1;" vertex="1" parent="1">
          <mxGeometry x="395" y="1112" width="50" height="46" as="geometry" />
        </mxCell>
        <mxCell id="AOJwUy35XkBBClN1Ieuf-100" value="Weblogic" style="text;html=1;align=center;verticalAlign=middle;resizable=0;points=[];autosize=1;strokeColor=none;fillColor=none;" vertex="1" parent="1">
          <mxGeometry x="785" y="1120" width="70" height="30" as="geometry" />
        </mxCell>
        <mxCell id="AOJwUy35XkBBClN1Ieuf-104" value="" style="rounded=1;whiteSpace=wrap;html=1;" vertex="1" parent="1">
          <mxGeometry x="50" y="1410" width="200" height="90" as="geometry" />
        </mxCell>
        <mxCell id="AOJwUy35XkBBClN1Ieuf-105" value="&lt;div&gt;&lt;br&gt;&lt;/div&gt;" style="text;html=1;align=center;verticalAlign=middle;resizable=0;points=[];autosize=1;strokeColor=none;fillColor=none;" vertex="1" parent="1">
          <mxGeometry x="140" y="1425" width="20" height="30" as="geometry" />
        </mxCell>
        <mxCell id="AOJwUy35XkBBClN1Ieuf-106" value="" style="rounded=1;whiteSpace=wrap;html=1;align=center;" vertex="1" parent="1">
          <mxGeometry x="260" y="1410" width="360" height="90" as="geometry" />
        </mxCell>
        <mxCell id="AOJwUy35XkBBClN1Ieuf-107" value="" style="rounded=1;whiteSpace=wrap;html=1;" vertex="1" parent="1">
          <mxGeometry x="650" y="1410" width="360" height="90" as="geometry" />
        </mxCell>
        <mxCell id="AOJwUy35XkBBClN1Ieuf-108" value="&lt;ul style=&quot;&quot;&gt;&lt;li&gt;Openshift 4.7&lt;/li&gt;&lt;li&gt;Spring boot V2&amp;nbsp;&lt;/li&gt;&lt;li&gt;HTML5 / Angular 2&lt;/li&gt;&lt;/ul&gt;" style="text;html=1;align=left;verticalAlign=middle;resizable=0;points=[];autosize=1;strokeColor=none;fillColor=none;" vertex="1" parent="1">
          <mxGeometry x="350" y="1415" width="160" height="80" as="geometry" />
        </mxCell>
        <mxCell id="AOJwUy35XkBBClN1Ieuf-110" value="&lt;ul&gt;&lt;li&gt;Imperva&lt;/li&gt;&lt;/ul&gt;" style="text;html=1;align=center;verticalAlign=middle;resizable=0;points=[];autosize=1;strokeColor=none;fillColor=none;" vertex="1" parent="1">
          <mxGeometry x="80" y="1430" width="110" height="50" as="geometry" />
        </mxCell>
        <mxCell id="AOJwUy35XkBBClN1Ieuf-111" value="&lt;ul&gt;&lt;li&gt;Anypoint Mulesoft 4.3&lt;/li&gt;&lt;li style=&quot;&quot;&gt;Weblogic 11g&lt;/li&gt;&lt;li style=&quot;&quot;&gt;Oracle 19c&lt;/li&gt;&lt;li style=&quot;&quot;&gt;Wso2 Identity Server 5.7&lt;/li&gt;&lt;/ul&gt;" style="text;html=1;align=left;verticalAlign=middle;resizable=0;points=[];autosize=1;strokeColor=none;fillColor=none;" vertex="1" parent="1">
          <mxGeometry x="725" y="1400" width="190" height="100" as="geometry" />
        </mxCell>
      </root>
    </mxGraphModel>
  </diagram>
</mxfile>
